<svg width="32" height="32" viewBox="0 0 32 32" fill="none" xmlns="http://www.w3.org/2000/svg">
<path d="M26.6665 8.66658H23.7598C23.9065 8.25325 23.9998 7.79992 23.9998 7.33325C23.9998 5.11992 22.2132 3.33325 19.9998 3.33325C18.5998 3.33325 17.3865 4.05325 16.6665 5.13325L15.9998 6.02659L15.3332 5.11992C14.6132 4.05325 13.3998 3.33325 11.9998 3.33325C9.7865 3.33325 7.99984 5.11992 7.99984 7.33325C7.99984 7.79992 8.09317 8.25325 8.23984 8.66658H5.33317C3.85317 8.66658 2.67984 9.85325 2.67984 11.3333L2.6665 25.9999C2.6665 27.4799 3.85317 28.6666 5.33317 28.6666H26.6665C28.1465 28.6666 29.3332 27.4799 29.3332 25.9999V11.3333C29.3332 9.85325 28.1465 8.66658 26.6665 8.66658ZM19.9998 5.99992C20.7332 5.99992 21.3332 6.59992 21.3332 7.33325C21.3332 8.06659 20.7332 8.66658 19.9998 8.66658C19.2665 8.66658 18.6665 8.06659 18.6665 7.33325C18.6665 6.59992 19.2665 5.99992 19.9998 5.99992ZM11.9998 5.99992C12.7332 5.99992 13.3332 6.59992 13.3332 7.33325C13.3332 8.06659 12.7332 8.66658 11.9998 8.66658C11.2665 8.66658 10.6665 8.06659 10.6665 7.33325C10.6665 6.59992 11.2665 5.99992 11.9998 5.99992ZM26.6665 25.9999H5.33317V23.3333H26.6665V25.9999ZM26.6665 19.3333H5.33317V11.3333H12.1065L9.33317 15.1066L11.4932 16.6666L15.9998 10.5333L20.5065 16.6666L22.6665 15.1066L19.8932 11.3333H26.6665V19.3333Z" fill="#0086FF"/>
</svg>
